<mxfile host="app.diagrams.net" agent="Mozilla/5.0 (Windows NT 10.0; Win64; x64) AppleWebKit/537.36 (KHTML, like Gecko) Chrome/137.0.0.0 Safari/537.36" version="27.1.4">
  <diagram name="Trang-1" id="aX0ufc8ISf8Jlh25pYXr">
    <mxGraphModel dx="2711" dy="1200" grid="1" gridSize="10" guides="1" tooltips="1" connect="1" arrows="1" fold="1" page="1" pageScale="1" pageWidth="1700" pageHeight="1100" math="0" shadow="0">
      <root>
        <mxCell id="0" />
        <mxCell id="1" parent="0" />
        <mxCell id="denGulech0zYoPifKanw-34" value="" style="rounded=0;whiteSpace=wrap;html=1;strokeColor=#99FFFF;fillColor=#CCFFFF;" parent="1" vertex="1">
          <mxGeometry x="320" width="1010" height="1100" as="geometry" />
        </mxCell>
        <mxCell id="denGulech0zYoPifKanw-1" value="Đăng ký" style="ellipse;whiteSpace=wrap;html=1;" parent="1" vertex="1">
          <mxGeometry x="820" y="118" width="120" height="30" as="geometry" />
        </mxCell>
        <mxCell id="denGulech0zYoPifKanw-2" value="Đăng nhập" style="ellipse;whiteSpace=wrap;html=1;" parent="1" vertex="1">
          <mxGeometry x="820" y="180" width="120" height="30" as="geometry" />
        </mxCell>
        <mxCell id="denGulech0zYoPifKanw-3" value="Xem danh sách/xem chi tiết&amp;nbsp;&lt;div&gt;tour, combo&lt;/div&gt;" style="ellipse;whiteSpace=wrap;html=1;" parent="1" vertex="1">
          <mxGeometry x="370" y="218" width="210" height="50" as="geometry" />
        </mxCell>
        <mxCell id="denGulech0zYoPifKanw-4" value="Xem các dịch vụ mở rộng:&amp;nbsp;&lt;div&gt;thuê HDV, thuê xe máy....&lt;/div&gt;" style="ellipse;whiteSpace=wrap;html=1;" parent="1" vertex="1">
          <mxGeometry x="370" y="278" width="210" height="50" as="geometry" />
        </mxCell>
        <mxCell id="denGulech0zYoPifKanw-5" value="Tìm kiếm" style="ellipse;whiteSpace=wrap;html=1;" parent="1" vertex="1">
          <mxGeometry x="370" y="338" width="210" height="30" as="geometry" />
        </mxCell>
        <mxCell id="denGulech0zYoPifKanw-6" value="Liên hệ hỗ trợ" style="ellipse;whiteSpace=wrap;html=1;" parent="1" vertex="1">
          <mxGeometry x="370" y="378" width="210" height="30" as="geometry" />
        </mxCell>
        <mxCell id="denGulech0zYoPifKanw-7" value="Xem đánh giá" style="ellipse;whiteSpace=wrap;html=1;" parent="1" vertex="1">
          <mxGeometry x="370" y="418" width="210" height="30" as="geometry" />
        </mxCell>
        <mxCell id="denGulech0zYoPifKanw-8" value="Đặt tour, combo" style="ellipse;whiteSpace=wrap;html=1;" parent="1" vertex="1">
          <mxGeometry x="540" y="488" width="210" height="30" as="geometry" />
        </mxCell>
        <mxCell id="denGulech0zYoPifKanw-9" value="Đặt vé linh hoạt" style="ellipse;whiteSpace=wrap;html=1;" parent="1" vertex="1">
          <mxGeometry x="540" y="528" width="210" height="30" as="geometry" />
        </mxCell>
        <mxCell id="denGulech0zYoPifKanw-10" value="Tùy chọn các dịch vụ mở rộng:&lt;div&gt;&amp;nbsp;thuê HDV, đặt xe...&lt;/div&gt;" style="ellipse;whiteSpace=wrap;html=1;" parent="1" vertex="1">
          <mxGeometry x="540" y="568" width="210" height="50" as="geometry" />
        </mxCell>
        <mxCell id="denGulech0zYoPifKanw-11" value="Viết đánh giá, bình luận" style="ellipse;whiteSpace=wrap;html=1;" parent="1" vertex="1">
          <mxGeometry x="540" y="628" width="210" height="30" as="geometry" />
        </mxCell>
        <mxCell id="denGulech0zYoPifKanw-12" value="Quản lý đơn đặt" style="ellipse;whiteSpace=wrap;html=1;" parent="1" vertex="1">
          <mxGeometry x="540" y="668" width="210" height="30" as="geometry" />
        </mxCell>
        <mxCell id="denGulech0zYoPifKanw-13" value="Cập nhật hồ sơ cá nhân" style="ellipse;whiteSpace=wrap;html=1;" parent="1" vertex="1">
          <mxGeometry x="540" y="708" width="210" height="30" as="geometry" />
        </mxCell>
        <mxCell id="denGulech0zYoPifKanw-14" value="Lưu tour/điểm đến yêu thích" style="ellipse;whiteSpace=wrap;html=1;" parent="1" vertex="1">
          <mxGeometry x="540" y="748" width="210" height="30" as="geometry" />
        </mxCell>
        <mxCell id="denGulech0zYoPifKanw-15" value="Quản lý khiếu nại, hoàn hủy" style="ellipse;whiteSpace=wrap;html=1;" parent="1" vertex="1">
          <mxGeometry x="540" y="788" width="210" height="30" as="geometry" />
        </mxCell>
        <mxCell id="denGulech0zYoPifKanw-16" value="Chat trực tuyến" style="ellipse;whiteSpace=wrap;html=1;" parent="1" vertex="1">
          <mxGeometry x="540" y="828" width="210" height="30" as="geometry" />
        </mxCell>
        <mxCell id="denGulech0zYoPifKanw-17" value="Tùy chọn phương thức&amp;nbsp;&lt;div&gt;thanh toán và thanh toán&lt;/div&gt;" style="ellipse;whiteSpace=wrap;html=1;" parent="1" vertex="1">
          <mxGeometry x="540" y="868" width="210" height="40" as="geometry" />
        </mxCell>
        <mxCell id="denGulech0zYoPifKanw-45" style="edgeStyle=orthogonalEdgeStyle;rounded=0;orthogonalLoop=1;jettySize=auto;html=1;entryX=0;entryY=0.5;entryDx=0;entryDy=0;endArrow=none;startFill=0;" parent="1" source="denGulech0zYoPifKanw-18" target="denGulech0zYoPifKanw-8" edge="1">
          <mxGeometry relative="1" as="geometry" />
        </mxCell>
        <mxCell id="denGulech0zYoPifKanw-46" style="edgeStyle=orthogonalEdgeStyle;rounded=0;orthogonalLoop=1;jettySize=auto;html=1;entryX=0;entryY=0.5;entryDx=0;entryDy=0;endArrow=none;startFill=0;" parent="1" source="denGulech0zYoPifKanw-18" target="denGulech0zYoPifKanw-9" edge="1">
          <mxGeometry relative="1" as="geometry" />
        </mxCell>
        <mxCell id="denGulech0zYoPifKanw-47" style="edgeStyle=orthogonalEdgeStyle;rounded=0;orthogonalLoop=1;jettySize=auto;html=1;entryX=0;entryY=0.5;entryDx=0;entryDy=0;endArrow=none;startFill=0;" parent="1" source="denGulech0zYoPifKanw-18" target="denGulech0zYoPifKanw-10" edge="1">
          <mxGeometry relative="1" as="geometry" />
        </mxCell>
        <mxCell id="denGulech0zYoPifKanw-49" style="edgeStyle=orthogonalEdgeStyle;rounded=0;orthogonalLoop=1;jettySize=auto;html=1;endArrow=none;startFill=0;" parent="1" source="denGulech0zYoPifKanw-18" target="denGulech0zYoPifKanw-11" edge="1">
          <mxGeometry relative="1" as="geometry" />
        </mxCell>
        <mxCell id="denGulech0zYoPifKanw-50" style="edgeStyle=orthogonalEdgeStyle;rounded=0;orthogonalLoop=1;jettySize=auto;html=1;entryX=0;entryY=0.5;entryDx=0;entryDy=0;endArrow=none;startFill=0;" parent="1" source="denGulech0zYoPifKanw-18" target="denGulech0zYoPifKanw-12" edge="1">
          <mxGeometry relative="1" as="geometry" />
        </mxCell>
        <mxCell id="denGulech0zYoPifKanw-51" style="edgeStyle=orthogonalEdgeStyle;rounded=0;orthogonalLoop=1;jettySize=auto;html=1;endArrow=none;startFill=0;" parent="1" source="denGulech0zYoPifKanw-18" target="denGulech0zYoPifKanw-13" edge="1">
          <mxGeometry relative="1" as="geometry" />
        </mxCell>
        <mxCell id="denGulech0zYoPifKanw-52" style="edgeStyle=orthogonalEdgeStyle;rounded=0;orthogonalLoop=1;jettySize=auto;html=1;entryX=0;entryY=0.5;entryDx=0;entryDy=0;endArrow=none;startFill=0;" parent="1" source="denGulech0zYoPifKanw-18" target="denGulech0zYoPifKanw-14" edge="1">
          <mxGeometry relative="1" as="geometry" />
        </mxCell>
        <mxCell id="denGulech0zYoPifKanw-53" style="edgeStyle=orthogonalEdgeStyle;rounded=0;orthogonalLoop=1;jettySize=auto;html=1;entryX=0;entryY=0.5;entryDx=0;entryDy=0;endArrow=none;startFill=0;" parent="1" source="denGulech0zYoPifKanw-18" target="denGulech0zYoPifKanw-15" edge="1">
          <mxGeometry relative="1" as="geometry" />
        </mxCell>
        <mxCell id="denGulech0zYoPifKanw-54" style="edgeStyle=orthogonalEdgeStyle;rounded=0;orthogonalLoop=1;jettySize=auto;html=1;entryX=0;entryY=0.5;entryDx=0;entryDy=0;endArrow=none;startFill=0;" parent="1" source="denGulech0zYoPifKanw-18" target="denGulech0zYoPifKanw-16" edge="1">
          <mxGeometry relative="1" as="geometry" />
        </mxCell>
        <mxCell id="denGulech0zYoPifKanw-55" style="edgeStyle=orthogonalEdgeStyle;rounded=0;orthogonalLoop=1;jettySize=auto;html=1;entryX=0;entryY=0.5;entryDx=0;entryDy=0;endArrow=none;startFill=0;" parent="1" source="denGulech0zYoPifKanw-18" target="denGulech0zYoPifKanw-17" edge="1">
          <mxGeometry relative="1" as="geometry" />
        </mxCell>
        <mxCell id="denGulech0zYoPifKanw-18" value="Yêu cầu đăng nhập" style="rounded=0;whiteSpace=wrap;html=1;" parent="1" vertex="1">
          <mxGeometry x="350" y="648" width="120" height="60" as="geometry" />
        </mxCell>
        <mxCell id="denGulech0zYoPifKanw-19" value="Quản lý tài khoản nhân viên" style="ellipse;whiteSpace=wrap;html=1;" parent="1" vertex="1">
          <mxGeometry x="1000" y="1000" width="250" height="40" as="geometry" />
        </mxCell>
        <mxCell id="denGulech0zYoPifKanw-21" value="Quản lý tài khoản khách hàng" style="ellipse;whiteSpace=wrap;html=1;" parent="1" vertex="1">
          <mxGeometry x="1000" y="218" width="250" height="40" as="geometry" />
        </mxCell>
        <mxCell id="denGulech0zYoPifKanw-22" value="Quản lý tour, điểm đến" style="ellipse;whiteSpace=wrap;html=1;" parent="1" vertex="1">
          <mxGeometry x="1000" y="278" width="250" height="40" as="geometry" />
        </mxCell>
        <mxCell id="denGulech0zYoPifKanw-23" value="Quản lý combo" style="ellipse;whiteSpace=wrap;html=1;" parent="1" vertex="1">
          <mxGeometry x="1000" y="338" width="250" height="40" as="geometry" />
        </mxCell>
        <mxCell id="denGulech0zYoPifKanw-24" value="Quản lý các dịch vụ mở rộng" style="ellipse;whiteSpace=wrap;html=1;" parent="1" vertex="1">
          <mxGeometry x="1000" y="398" width="250" height="40" as="geometry" />
        </mxCell>
        <mxCell id="denGulech0zYoPifKanw-25" value="Quản lý khuyến mãi, voucher" style="ellipse;whiteSpace=wrap;html=1;" parent="1" vertex="1">
          <mxGeometry x="1000" y="458" width="250" height="40" as="geometry" />
        </mxCell>
        <mxCell id="denGulech0zYoPifKanw-26" value="Quản lý feedback, comment&amp;nbsp;" style="ellipse;whiteSpace=wrap;html=1;" parent="1" vertex="1">
          <mxGeometry x="1000" y="518" width="250" height="40" as="geometry" />
        </mxCell>
        <mxCell id="denGulech0zYoPifKanw-27" value="Quản lý thông báo" style="ellipse;whiteSpace=wrap;html=1;" parent="1" vertex="1">
          <mxGeometry x="1000" y="573" width="250" height="40" as="geometry" />
        </mxCell>
        <mxCell id="denGulech0zYoPifKanw-28" value="Xử lý khiếu nại, hoàn hủy" style="ellipse;whiteSpace=wrap;html=1;" parent="1" vertex="1">
          <mxGeometry x="1000" y="628" width="250" height="40" as="geometry" />
        </mxCell>
        <mxCell id="denGulech0zYoPifKanw-29" value="Quản lý nội dung chat trực truyến" style="ellipse;whiteSpace=wrap;html=1;" parent="1" vertex="1">
          <mxGeometry x="1000" y="688" width="250" height="40" as="geometry" />
        </mxCell>
        <mxCell id="denGulech0zYoPifKanw-30" value="Quản lý báo cáo, thống kê" style="ellipse;whiteSpace=wrap;html=1;" parent="1" vertex="1">
          <mxGeometry x="1000" y="748" width="250" height="40" as="geometry" />
        </mxCell>
        <mxCell id="denGulech0zYoPifKanw-31" value="Cấu hình hệ thống" style="ellipse;whiteSpace=wrap;html=1;" parent="1" vertex="1">
          <mxGeometry x="1000" y="808" width="250" height="40" as="geometry" />
        </mxCell>
        <mxCell id="denGulech0zYoPifKanw-33" value="Đăng xuất" style="ellipse;whiteSpace=wrap;html=1;" parent="1" vertex="1">
          <mxGeometry x="820" y="940" width="120" height="30" as="geometry" />
        </mxCell>
        <mxCell id="denGulech0zYoPifKanw-36" value="&lt;font style=&quot;font-size: 24px;&quot;&gt;Hệ thống webite đặt vé tour du lịch VTravel&lt;/font&gt;" style="text;html=1;align=center;verticalAlign=middle;whiteSpace=wrap;rounded=0;strokeWidth=24;fontStyle=1" parent="1" vertex="1">
          <mxGeometry x="560" y="30" width="530" height="30" as="geometry" />
        </mxCell>
        <mxCell id="denGulech0zYoPifKanw-39" style="edgeStyle=orthogonalEdgeStyle;rounded=0;orthogonalLoop=1;jettySize=auto;html=1;entryX=0;entryY=0.5;entryDx=0;entryDy=0;endArrow=none;startFill=0;" parent="1" source="denGulech0zYoPifKanw-37" target="denGulech0zYoPifKanw-3" edge="1">
          <mxGeometry relative="1" as="geometry" />
        </mxCell>
        <mxCell id="denGulech0zYoPifKanw-40" style="edgeStyle=orthogonalEdgeStyle;rounded=0;orthogonalLoop=1;jettySize=auto;html=1;entryX=0;entryY=0.5;entryDx=0;entryDy=0;endArrow=none;startFill=0;" parent="1" source="denGulech0zYoPifKanw-37" target="denGulech0zYoPifKanw-4" edge="1">
          <mxGeometry relative="1" as="geometry" />
        </mxCell>
        <mxCell id="denGulech0zYoPifKanw-41" style="edgeStyle=orthogonalEdgeStyle;rounded=0;orthogonalLoop=1;jettySize=auto;html=1;entryX=0;entryY=0.5;entryDx=0;entryDy=0;endArrow=none;startFill=0;" parent="1" source="denGulech0zYoPifKanw-37" target="denGulech0zYoPifKanw-5" edge="1">
          <mxGeometry relative="1" as="geometry" />
        </mxCell>
        <mxCell id="denGulech0zYoPifKanw-42" style="edgeStyle=orthogonalEdgeStyle;rounded=0;orthogonalLoop=1;jettySize=auto;html=1;entryX=0;entryY=0.5;entryDx=0;entryDy=0;endArrow=none;startFill=0;" parent="1" source="denGulech0zYoPifKanw-37" target="denGulech0zYoPifKanw-6" edge="1">
          <mxGeometry relative="1" as="geometry" />
        </mxCell>
        <mxCell id="denGulech0zYoPifKanw-43" style="edgeStyle=orthogonalEdgeStyle;rounded=0;orthogonalLoop=1;jettySize=auto;html=1;entryX=0;entryY=0.5;entryDx=0;entryDy=0;endArrow=none;startFill=0;" parent="1" source="denGulech0zYoPifKanw-37" target="denGulech0zYoPifKanw-7" edge="1">
          <mxGeometry relative="1" as="geometry" />
        </mxCell>
        <mxCell id="denGulech0zYoPifKanw-44" style="edgeStyle=orthogonalEdgeStyle;rounded=0;orthogonalLoop=1;jettySize=auto;html=1;entryX=0;entryY=0.5;entryDx=0;entryDy=0;endArrow=none;startFill=0;" parent="1" source="denGulech0zYoPifKanw-37" target="denGulech0zYoPifKanw-18" edge="1">
          <mxGeometry relative="1" as="geometry">
            <Array as="points">
              <mxPoint x="290" y="543" />
              <mxPoint x="290" y="678" />
            </Array>
          </mxGeometry>
        </mxCell>
        <mxCell id="denGulech0zYoPifKanw-56" style="edgeStyle=orthogonalEdgeStyle;rounded=0;orthogonalLoop=1;jettySize=auto;html=1;entryX=0;entryY=0.5;entryDx=0;entryDy=0;endArrow=none;startFill=0;" parent="1" source="denGulech0zYoPifKanw-37" target="denGulech0zYoPifKanw-33" edge="1">
          <mxGeometry relative="1" as="geometry">
            <Array as="points">
              <mxPoint x="290" y="543" />
              <mxPoint x="290" y="955" />
            </Array>
          </mxGeometry>
        </mxCell>
        <mxCell id="denGulech0zYoPifKanw-57" style="edgeStyle=orthogonalEdgeStyle;rounded=0;orthogonalLoop=1;jettySize=auto;html=1;entryX=0;entryY=0.5;entryDx=0;entryDy=0;endArrow=none;startFill=0;" parent="1" source="denGulech0zYoPifKanw-37" target="denGulech0zYoPifKanw-1" edge="1">
          <mxGeometry relative="1" as="geometry">
            <Array as="points">
              <mxPoint x="240" y="543" />
              <mxPoint x="240" y="133" />
            </Array>
          </mxGeometry>
        </mxCell>
        <mxCell id="denGulech0zYoPifKanw-58" style="edgeStyle=orthogonalEdgeStyle;rounded=0;orthogonalLoop=1;jettySize=auto;html=1;entryX=0;entryY=0.5;entryDx=0;entryDy=0;endArrow=none;startFill=0;" parent="1" source="denGulech0zYoPifKanw-37" target="denGulech0zYoPifKanw-2" edge="1">
          <mxGeometry relative="1" as="geometry">
            <Array as="points">
              <mxPoint x="260" y="543" />
              <mxPoint x="260" y="190" />
              <mxPoint x="820" y="190" />
            </Array>
          </mxGeometry>
        </mxCell>
        <mxCell id="denGulech0zYoPifKanw-37" value="&lt;font style=&quot;font-size: 20px;&quot;&gt;user&lt;/font&gt;" style="shape=umlActor;verticalLabelPosition=bottom;verticalAlign=top;html=1;outlineConnect=0;" parent="1" vertex="1">
          <mxGeometry x="170" y="513" width="30" height="60" as="geometry" />
        </mxCell>
        <mxCell id="denGulech0zYoPifKanw-60" value="&lt;font style=&quot;font-size: 20px;&quot;&gt;employee&lt;/font&gt;" style="shape=umlActor;verticalLabelPosition=bottom;verticalAlign=top;html=1;outlineConnect=0;" parent="1" vertex="1">
          <mxGeometry x="1450" y="518" width="30" height="60" as="geometry" />
        </mxCell>
        <mxCell id="denGulech0zYoPifKanw-79" value="&lt;font style=&quot;font-size: 20px;&quot;&gt;admin&lt;/font&gt;" style="shape=umlActor;verticalLabelPosition=bottom;verticalAlign=top;html=1;outlineConnect=0;" parent="1" vertex="1">
          <mxGeometry x="1450" y="980" width="30" height="60" as="geometry" />
        </mxCell>
        <mxCell id="f_hoJaJnrOzsMf0L5pGB-7" value="" style="endArrow=classic;html=1;rounded=0;" edge="1" parent="1">
          <mxGeometry relative="1" as="geometry">
            <mxPoint x="1465" y="970" as="sourcePoint" />
            <mxPoint x="1465" y="610" as="targetPoint" />
          </mxGeometry>
        </mxCell>
        <mxCell id="f_hoJaJnrOzsMf0L5pGB-8" value="extend" style="edgeLabel;resizable=0;html=1;;align=center;verticalAlign=middle;" connectable="0" vertex="1" parent="f_hoJaJnrOzsMf0L5pGB-7">
          <mxGeometry relative="1" as="geometry" />
        </mxCell>
      </root>
    </mxGraphModel>
  </diagram>
</mxfile>
